<?xml version="1.0" encoding="utf-8"?>

<!-- Generator: Adobe Illustrator 23.0.3, SVG Export Plug-In . SVG Version: 6.00 Build 0)  -->

<svg version="1.1" id="Layer_1" xmlns="http://www.w3.org/2000/svg" xmlns:xlink="http://www.w3.org/1999/xlink" x="0px" y="0px"

	 viewBox="0 0 250 107" style="enable-background:new 0 0 250 107;" xml:space="preserve">

<style type="text/css">

	.st0{fill:#009FE3;}

	.st1{fill:#FFFFFF;}

</style>

<rect class="st0" width="250" height="107"/>

<path class="st1" d="M100.07,43.59c-4.16-1.26-7.2-5.12-7.2-9.7c0-0.83,0.1-1.63,0.28-2.4l6.58,0.84c0,0,2.52,0.11,2.43,4.58

	C102.08,41.26,100.07,43.59,100.07,43.59"/>

<path class="st1" d="M105.95,43.59c4.16-1.26,7.2-5.12,7.2-9.7c0-0.83-0.1-1.63-0.28-2.4l-6.58,0.84c0,0-2.52,0.11-2.43,4.58

	C103.94,41.26,105.95,43.59,105.95,43.59"/>

<path class="st1" d="M103.01,26.65c0.85,0,1.53,0.69,1.53,1.53c0,0.66-0.45,1.15-1,1.44c-0.07,0.04-0.13,0.07-0.12,0.17

	c0.01,0.11,0.33,0.17,0.46,0.2l8.84,1.03c-1.24-4.19-5.12-7.25-9.71-7.25H103c-4.59,0-8.47,3.06-9.71,7.25l8.84-1.03

	c0.13-0.03,0.45-0.09,0.46-0.2c0.01-0.11-0.05-0.13-0.12-0.17c-0.55-0.29-1-0.78-1-1.44C101.48,27.33,102.16,26.65,103.01,26.65"/>

<path class="st1" d="M107.05,50.76l0.6-0.37c0,0-2.84-3.85-9.2-3.85c-3.25,0-4.94,1.31-7.22,1.31c0,0-0.94,0.11-1.83-0.45

	c0,0,1.08,1.57,5.01,1.57c2.88,0,4.94-1.68,6.96-1.68C104.13,47.29,106.19,49.75,107.05,50.76"/>

<path class="st1" d="M98.22,50.76l-0.6-0.37c0,0,2.84-3.85,9.2-3.85c3.25,0,4.94,1.31,7.22,1.31c0,0,0.94,0.11,1.83-0.45

	c0,0-1.08,1.57-5.01,1.57c-2.88,0-4.94-1.68-6.96-1.68C101.14,47.29,99.08,49.75,98.22,50.76"/>

<path class="st1" d="M95.19,46.2c-0.11,0.3-1.33-0.06-2.15,0.19c-0.92,0.27-5.78,0.86-7.91-4.19c0,0,2.02,2.17,3.59,2.32

	c1.57,0.15,3.29,0.52,4.75,1.35l0.34,0.07c0,0-0.05-0.15-0.19-0.22c-0.19-0.1-1.71-0.59-2.43-2.99c-0.37-1.23-0.3-2.13-0.45-2.77

	c0,0,1.65,1.83,2.32,2.99C93.74,44.11,93.81,45.42,95.19,46.2"/>

<path class="st1" d="M90.24,43.66c-0.12,0.12-0.43-0.08-0.54-0.13c-0.11-0.06-0.92-0.43-2.3-0.92c-1.36-0.49-3.91-2.64-3.66-6.32

	c0,0,0.36,1.38,1.4,2.3c1.05,0.92,1.42,1.03,2.06,1.78c0.63,0.75,2.08,2.45,2.13,2.43c0.06-0.02,0.08-0.11-0.04-0.21

	c-0.11-0.09-0.49-1.03-0.73-1.35c-0.24-0.32-0.97-2.5,0.09-5.2c0,0,1.14,1.96,1.07,3.94c-0.07,1.98-0.17,1.51,0.32,3.16

	C90.03,43.15,90.3,43.6,90.24,43.66"/>

<path class="st1" d="M87.06,38.85c-0.07,0.07-0.36-0.36-0.58-0.75c-0.22-0.39-1.79-2.08-2-2.41c-0.21-0.34-1.96-2.47-0.64-5.63

	c0,0,0.13-0.04,0.13,0.71c0,0.75,0.69,2.41,1.25,3.12c0.56,0.71,1.07,1.85,1.18,3.07c0,0,0.07,0.23,0.17,0.24

	c0.09,0.02,0.09-0.22,0.09-0.22s-0.08-1.12-0.08-1.89c0-0.77,0.34-2.08,1.07-2.82c0,0,0.34-0.37,0.54-0.82c0,0,0.13-0.3,0.32-0.45

	c0,0,0.15,2.15-0.58,4.15c-0.73,2-0.97,2.34-0.86,3.42C87.08,38.57,87.1,38.82,87.06,38.85"/>

<path class="st1" d="M85.83,32.94c-0.08,0-0.13-0.26-0.17-0.47c-0.04-0.21-0.26-1.4-0.41-1.66c-0.15-0.26-0.71-1.46-0.73-2.86

	c-0.02-1.4,0.62-3.31,2.04-4.82c0,0-0.06,0.45-0.43,1.44c-0.37,0.99-0.15,1.93-0.11,2.09c0.04,0.17,0.17,1.33,0.17,1.87

	c0,0.43-0.11,1.91-0.21,2.2c0,0-0.04,0.21,0.04,0.21c0.08,0,0.15-0.17,0.15-0.17s0.08-1.16,0.94-2.21c0.86-1.05,2.41-1.68,2.66-2.15

	c0,0-0.11,1.65-1.93,3.57c-1.62,1.71-1.14,0.84-1.67,2.24c0,0-0.22,0.52-0.22,0.63C85.94,32.98,85.83,32.94,85.83,32.94"/>

<path class="st1" d="M86.82,27.41c0,0-0.04-0.23,0.24-0.73c0.28-0.5-0.02-1.4,0.36-2.71c0.37-1.31,1.07-3.55,3.7-4.9

	c0,0-0.26,0.24-0.39,0.43c-0.13,0.19-0.84,1.53-1.05,2.47c-0.21,0.94-1.1,2.51-1.44,2.86c-0.34,0.36-0.19,0.39-0.19,0.39

	s0.17-0.04,0.34-0.3c0.17-0.26,1.03-1.23,1.98-1.46c0.95-0.22,2.47-0.67,2.56-0.76c0,0-1.65,1.68-3.16,2.54

	c-1.51,0.86-1.68,0.6-2.58,1.76C87.19,27,86.89,27.41,86.82,27.41"/>

<path class="st1" d="M90.44,22.42c0,0,0-0.15,0.28-0.41c0.28-0.26,0.56-1.05,1.05-1.78c0.49-0.73,1.59-2.64,4.45-3.08

	c0,0-0.86,0.63-0.99,0.84c-0.13,0.21-0.97,1.31-1.35,1.68c-0.37,0.37-1.44,1.16-1.79,1.33c0,0-0.19,0.15-0.15,0.21

	c0.04,0.06,0.22-0.06,0.22-0.06s0.99-0.77,2.19-0.8c1.2-0.04,2.45,0.02,2.64,0.04c0,0-1.12,0.77-3.79,1.25

	c-2.67,0.49-2.17,0.51-2.58,0.77C90.61,22.4,90.52,22.47,90.44,22.42"/>

<path class="st1" d="M95.21,19.31c0,0,0.06-0.15,0.49-0.28c0.43-0.13,0.39-0.54,1.7-1.23c1.31-0.69,2.67-1.01,4.06-0.43

	c0,0-0.58,0.08-0.67,0.11c-0.1,0.04-1.09,0.3-1.37,0.45c-0.28,0.15-1.72,0.79-2.3,0.9c-0.58,0.11-0.3,0.15-0.3,0.15

	s0.13,0.06,0.24,0.06c0.11,0,1.4-0.13,2.24,0.17c0.84,0.3,0.82,0.41,1.16,0.52c0.34,0.11,0.73,0.19,0.78,0.32

	c0,0-0.84,0.07-1.35,0.07s-1.83-0.13-2.47-0.43c-0.63-0.3-1.36-0.43-1.61-0.37C95.59,19.37,95.29,19.37,95.21,19.31"/>

<path class="st1" d="M100.52,18.66c0,0,0.06-0.08,0.43-0.15c0.37-0.08,0.47-0.3,1.34-0.49c0.88-0.19,2.24-0.36,3.5,0.51

	c0,0-0.77-0.02-0.93-0.02c-0.17,0-1.63,0.26-1.96,0.26c-0.34,0-1.01-0.15-1.1-0.04c-0.09,0.11,0.62,0.26,0.73,0.3

	c0.11,0.04,0.62,0.07,1.25,0.69c0.64,0.62,1.09,0.95,1.16,0.99c0,0-1.87-0.43-2.34-0.69c-0.47-0.26-1.27-1.07-1.4-1.12

	C101.06,18.84,100.52,18.66,100.52,18.66"/>

<path class="st1" d="M104.84,19.42c0,0,1.18-0.04,2.04,0.5c0.86,0.54,1.55,1.25,1.63,1.68c0,0-0.49-0.41-0.8-0.5

	c-0.32-0.09-1.22-0.6-1.4-0.71C106.11,20.28,105.03,19.59,104.84,19.42"/>

<path class="st1" d="M110.38,46.41c0,0,0.17-0.17,0.73-0.65c0.56-0.49,0.71-1.2,1.33-2.3c0.61-1.1,1.14-1.87,2.39-2.99

	c0,0-0.23,0.84-0.24,1.1c-0.02,0.26-0.22,1.72-0.93,2.56c-0.71,0.84-0.75,1.03-1.57,1.53c0,0-0.32,0.22-0.3,0.3

	c0.02,0.07,0.56-0.02,0.56-0.02s0.6-0.22,0.79-0.34c0.19-0.11,1.03-0.54,1.36-0.67c0.34-0.13,0.62-0.26,1.36-0.49

	c0.75-0.23,3.46-0.92,4.52-2.64c0,0-0.32,1.01-0.71,1.48c-0.39,0.47-2.62,3.41-5.7,3.35c0,0-1.22-0.1-1.85-0.21

	c-0.64-0.11-0.86-0.11-0.95-0.1C111.07,46.35,110.47,46.46,110.38,46.41"/>

<path class="st1" d="M117.28,35.92c0,0-1.16,1.81-1.42,4.43c-0.26,2.62,0.19,1.83-0.24,2.99c0,0-0.15,0.3-0.09,0.32

	c0.05,0.02,0.28-0.11,1.1-0.62c0.82-0.5,1.63-0.36,3.38-2.04c1.76-1.68,2.11-5.03,2.15-5.31c0,0-0.26,0.26-0.39,0.71

	c-0.13,0.45-0.41,0.81-0.47,0.86c-0.06,0.05-1.96,2.15-2.19,2.34c-0.23,0.19-1.35,1.55-1.59,1.94c-0.24,0.39-0.95,1.1-1.08,1.05

	c0,0,0.02-0.17,0.07-0.3c0.06-0.13,0.58-0.84,0.8-1.67c0.23-0.82,0.28-1.33,0.3-1.85C117.63,38.25,117.3,36.33,117.28,35.92"/>

<path class="st1" d="M118.85,38.44c0,0-0.12-0.27-0.02-0.47c0.06-0.11,0.11-1.01-0.22-1.74c-0.34-0.73-1.07-2.75-1.01-4.09

	c0.06-1.35,0.21-1.53,0.21-1.53s0.37,1.1,0.49,1.29c0.11,0.19,1.23,2.17,1.14,3.25c-0.1,1.08-0.15,1.42-0.1,1.44

	c0.06,0.02,0.19-0.13,0.21-0.26c0.02-0.13,0.21-0.88,0.56-1.76c0.36-0.88,1.8-2.82,2.11-4.11c0,0,0.47,2.24-0.79,4.34

	c-1.25,2.09-1.38,1.63-1.91,2.58C119,38.33,118.92,38.44,118.85,38.44"/>

<path class="st1" d="M119.99,32.51c-0.09-0.02-0.04-0.88-0.26-1.16c-0.22-0.28-2.15-2.56-2.56-4.84c0,0,1.22,1.23,1.42,1.36

	c0.21,0.13,1.03,0.95,1.27,1.66c0.24,0.71,0.19,1.31,0.28,1.33c0.09,0.02,0.09-0.78,0.09-0.78s0.02-1.57,0.15-2.32

	c0.13-0.75,0.47-2,0.32-2.64c0,0,0.73,1.16,0.69,2.81c-0.04,1.65-0.73,2.95-0.82,3.14c-0.1,0.19-0.36,0.99-0.36,1.16

	C120.21,32.4,119.99,32.51,119.99,32.51"/>

<path class="st1" d="M117.71,20.81c0,0,2.52,1.5,2.13,6.51c0,0,0,0.23-0.15-0.02c-0.15-0.24-0.69-0.94-0.94-1.09

	c-0.24-0.15-2.49-1.51-3.44-3.61c0,0,0.15-0.04,0.37,0.17c0.22,0.21,0.92,0.56,1.03,0.62c0.11,0.06,0.9,0.26,1.48,0.9

	c0.58,0.63,0.79,1.1,0.96,1.48c0,0,0.17,0.13,0.06-0.24c-0.11-0.37-0.13-0.61-0.43-1.08c-0.3-0.47-0.56-1.31-0.6-1.89

	C118.14,21.97,117.97,21.11,117.71,20.81"/>

<path class="st1" d="M117.28,22.57c0,0,0.06-0.34-0.19-0.8c-0.25-0.47-0.05-0.99-0.82-2.22c-0.43-0.69-1.93-1.23-1.93-1.23

	s0.43,0.6,0.71,0.93c0.28,0.34,0.37,0.58,0.47,0.75c0.09,0.17,0.61,0.67,0.8,0.95c0.04,0.06,0.11,0.21,0.11,0.3

	c0,0.09-0.21-0.06-0.26-0.11c-0.06-0.06-0.97-0.75-1.55-0.86c-0.58-0.11-1.68-0.22-1.98-0.37c0,0,1.31,1.18,2.73,1.53

	C116.79,21.78,117.28,22.57,117.28,22.57"/>

<path class="st1" d="M114.32,19.48c0,0-1.31-1.78-3.65-1.74c0,0,0.13,0.13,0.39,0.19c0.26,0.05,0.73,0.52,0.97,0.67

	C112.28,18.75,112.79,19.13,114.32,19.48"/>

<path class="st1" d="M42.55,17.04v21.97c0,1.92-0.32,3.62-0.96,5.09c-0.64,1.47-1.52,2.7-2.65,3.69c-1.13,0.99-2.47,1.74-4.03,2.24

	c-1.56,0.5-3.27,0.75-5.11,0.75c-1.86,0-3.57-0.25-5.13-0.75c-1.56-0.5-2.91-1.25-4.03-2.24c-1.13-0.99-2.01-2.22-2.64-3.69

	c-0.63-1.47-0.95-3.17-0.95-5.09V17.04h6.86v21.97c0,2.18,0.52,3.77,1.57,4.77c1.04,1,2.49,1.5,4.33,1.5c1.86,0,3.3-0.5,4.33-1.5

	c1.03-1,1.54-2.59,1.54-4.77V17.04H42.55z"/>

<polygon class="st1" points="75.24,50.33 68.39,50.33 55.04,28.43 55.04,50.33 48.18,50.33 48.18,17.04 55.04,17.04 68.41,38.99 

	68.41,17.04 75.24,17.04 "/>

<path class="st1" d="M21.69,63.6c-0.52,0-0.94,0.18-1.27,0.54c-0.32,0.36-0.53,0.87-0.62,1.54h3.65v-0.21

	c-0.01-0.6-0.17-1.06-0.47-1.38C22.68,63.76,22.25,63.6,21.69,63.6 M21.99,71.83c-1.44,0-2.61-0.45-3.52-1.35

	c-0.9-0.9-1.35-2.1-1.35-3.6v-0.26c0-1,0.19-1.91,0.57-2.7c0.38-0.79,0.92-1.4,1.62-1.83c0.7-0.43,1.5-0.64,2.39-0.64

	c1.34,0,2.4,0.43,3.17,1.3c0.77,0.86,1.16,2.09,1.16,3.67v1.09h-6.25c0.09,0.65,0.34,1.18,0.77,1.57c0.43,0.39,0.97,0.59,1.62,0.59

	c1.01,0,1.8-0.37,2.37-1.12l1.29,1.47c-0.39,0.57-0.93,1.01-1.6,1.33C23.55,71.67,22.81,71.83,21.99,71.83"/>

<path class="st1" d="M30.04,61.63l0.08,1.16c0.7-0.89,1.64-1.34,2.82-1.34c1.04,0,1.81,0.31,2.32,0.94c0.51,0.62,0.77,1.56,0.78,2.8

	v6.47h-2.62v-6.41c0-0.57-0.12-0.98-0.37-1.23c-0.24-0.25-0.64-0.38-1.21-0.38c-0.74,0-1.29,0.32-1.66,0.96v7.06h-2.62V61.63H30.04z

	"/>

<polygon class="st1" points="41.83,68.38 43.65,61.63 46.39,61.63 43.08,71.64 40.57,71.64 37.26,61.63 40,61.63 "/>

<path class="st1" d="M50.42,71.64h-2.63V61.63h2.63V71.64z M47.64,59.04c0-0.4,0.13-0.73,0.39-0.99c0.26-0.26,0.62-0.39,1.08-0.39

	c0.45,0,0.8,0.13,1.07,0.39c0.27,0.26,0.4,0.59,0.4,0.99c0,0.41-0.13,0.74-0.4,1c-0.27,0.26-0.62,0.39-1.07,0.39

	c-0.44,0-0.8-0.13-1.07-0.39C47.77,59.78,47.64,59.44,47.64,59.04"/>

<path class="st1" d="M58.21,64.14c-0.36-0.05-0.67-0.07-0.95-0.07c-0.99,0-1.64,0.34-1.95,1.03v6.55h-2.62V61.63h2.48l0.07,1.2

	c0.52-0.92,1.25-1.38,2.19-1.38c0.29,0,0.56,0.04,0.82,0.12L58.21,64.14z"/>

<path class="st1" d="M61.47,66.73c0,0.95,0.18,1.68,0.53,2.19c0.35,0.5,0.85,0.75,1.51,0.75c0.63,0,1.13-0.25,1.49-0.75

	c0.36-0.5,0.53-1.29,0.53-2.39c0-0.93-0.18-1.66-0.53-2.17c-0.36-0.51-0.86-0.77-1.51-0.77c-0.64,0-1.14,0.25-1.49,0.76

	C61.65,64.88,61.47,65.66,61.47,66.73 M58.85,66.54c0-0.99,0.19-1.88,0.56-2.66c0.38-0.78,0.92-1.38,1.62-1.8

	c0.71-0.43,1.52-0.64,2.45-0.64c1.33,0,2.41,0.41,3.24,1.24c0.84,0.83,1.31,1.95,1.4,3.37l0.02,0.69c0,1.54-0.42,2.77-1.26,3.7

	c-0.84,0.93-1.97,1.39-3.39,1.39c-1.42,0-2.55-0.46-3.39-1.39c-0.85-0.92-1.27-2.18-1.27-3.78V66.54z"/>

<path class="st1" d="M72.29,61.63l0.08,1.16c0.7-0.89,1.64-1.34,2.82-1.34c1.04,0,1.81,0.31,2.32,0.94c0.51,0.62,0.77,1.56,0.78,2.8

	v6.47h-2.62v-6.41c0-0.57-0.12-0.98-0.37-1.23c-0.24-0.25-0.64-0.38-1.21-0.38c-0.74,0-1.29,0.32-1.66,0.96v7.06h-2.62V61.63H72.29z

	"/>

<path class="st1" d="M82.86,61.63l0.08,1.12c0.7-0.87,1.64-1.31,2.82-1.31c1.26,0,2.13,0.51,2.6,1.53c0.69-1.02,1.67-1.53,2.95-1.53

	c1.07,0,1.86,0.32,2.38,0.95c0.52,0.63,0.78,1.59,0.78,2.86v6.4h-2.63v-6.39c0-0.57-0.11-0.98-0.33-1.24

	c-0.22-0.26-0.6-0.39-1.15-0.39c-0.79,0-1.33,0.38-1.63,1.15l0.01,6.88h-2.62v-6.38c0-0.58-0.11-1-0.34-1.26

	c-0.23-0.26-0.61-0.39-1.14-0.39c-0.74,0-1.28,0.32-1.61,0.95v7.08H80.4V61.63H82.86z"/>

<path class="st1" d="M100.82,63.6c-0.52,0-0.94,0.18-1.27,0.54c-0.32,0.36-0.53,0.87-0.62,1.54h3.65v-0.21

	c-0.01-0.6-0.17-1.06-0.47-1.38C101.8,63.76,101.37,63.6,100.82,63.6 M101.12,71.83c-1.44,0-2.61-0.45-3.52-1.35

	c-0.9-0.9-1.35-2.1-1.35-3.6v-0.26c0-1,0.19-1.91,0.57-2.7c0.38-0.79,0.92-1.4,1.62-1.83c0.7-0.43,1.5-0.64,2.39-0.64

	c1.34,0,2.4,0.43,3.17,1.3c0.77,0.86,1.16,2.09,1.16,3.67v1.09H98.9c0.09,0.65,0.34,1.18,0.77,1.57c0.43,0.39,0.97,0.59,1.62,0.59

	c1.01,0,1.8-0.37,2.37-1.12l1.29,1.47c-0.39,0.57-0.93,1.01-1.6,1.33C102.68,71.67,101.93,71.83,101.12,71.83"/>

<path class="st1" d="M109.17,61.63l0.08,1.16c0.7-0.89,1.64-1.34,2.82-1.34c1.04,0,1.81,0.31,2.32,0.94

	c0.51,0.62,0.77,1.56,0.78,2.8v6.47h-2.62v-6.41c0-0.57-0.12-0.98-0.37-1.23c-0.24-0.25-0.64-0.38-1.21-0.38

	c-0.74,0-1.29,0.32-1.66,0.96v7.06h-2.62V61.63H109.17z"/>

<path class="st1" d="M120.41,59.17v2.46h1.68v1.96h-1.68v5c0,0.37,0.07,0.64,0.21,0.8c0.14,0.16,0.41,0.24,0.8,0.24

	c0.29,0,0.55-0.02,0.77-0.06v2.03c-0.51,0.16-1.04,0.24-1.59,0.24c-1.84,0-2.78-0.95-2.81-2.84v-5.4h-1.44v-1.96h1.44v-2.46H120.41z

	"/>

<path class="st1" d="M23.69,84.55c0-0.93-0.16-1.65-0.49-2.16c-0.32-0.5-0.79-0.76-1.41-0.76c-0.82,0-1.39,0.32-1.7,0.96v4.1

	c0.32,0.66,0.89,0.99,1.71,0.99C23.06,87.69,23.69,86.64,23.69,84.55 M26.31,84.74c0,1.54-0.34,2.78-1.03,3.71

	c-0.69,0.93-1.61,1.39-2.78,1.39c-0.99,0-1.79-0.35-2.4-1.06v4.72h-2.62V79.64h2.43L20,80.63c0.63-0.78,1.46-1.17,2.49-1.17

	c1.21,0,2.15,0.46,2.82,1.37c0.67,0.91,1.01,2.17,1.01,3.78V84.74z"/>

<path class="st1" d="M33.57,82.15c-0.36-0.05-0.67-0.07-0.95-0.07c-0.99,0-1.64,0.34-1.95,1.03v6.55h-2.62V79.64h2.48l0.07,1.2

	c0.52-0.92,1.25-1.38,2.19-1.38c0.29,0,0.56,0.04,0.82,0.12L33.57,82.15z"/>

<path class="st1" d="M36.82,84.75c0,0.95,0.18,1.68,0.53,2.19c0.35,0.5,0.85,0.75,1.51,0.75c0.63,0,1.13-0.25,1.49-0.75

	c0.36-0.5,0.53-1.29,0.53-2.39c0-0.93-0.18-1.66-0.53-2.17c-0.36-0.51-0.86-0.77-1.51-0.77c-0.64,0-1.14,0.25-1.49,0.76

	C37,82.89,36.82,83.68,36.82,84.75 M34.2,84.56c0-0.99,0.19-1.88,0.56-2.66c0.38-0.78,0.92-1.38,1.62-1.8

	c0.71-0.43,1.52-0.64,2.45-0.64c1.33,0,2.41,0.41,3.24,1.24c0.84,0.83,1.31,1.95,1.4,3.37l0.02,0.69c0,1.54-0.42,2.77-1.26,3.7

	c-0.84,0.93-1.97,1.39-3.39,1.39c-1.42,0-2.55-0.46-3.39-1.39c-0.85-0.92-1.27-2.18-1.27-3.78V84.56z"/>

<path class="st1" d="M47.47,84.78c0,0.91,0.18,1.62,0.54,2.14c0.36,0.51,0.85,0.77,1.47,0.77c0.8,0,1.37-0.31,1.71-0.92v-4.22

	c-0.35-0.61-0.92-0.92-1.7-0.92c-0.63,0-1.12,0.26-1.48,0.79C47.65,82.95,47.47,83.73,47.47,84.78 M44.85,84.58

	c0-1.54,0.36-2.77,1.08-3.71c0.72-0.94,1.68-1.41,2.9-1.41c1.08,0,1.92,0.38,2.51,1.13l0.11-0.95h2.38v9.68

	c0,0.88-0.19,1.64-0.59,2.29c-0.39,0.65-0.94,1.14-1.65,1.48c-0.71,0.34-1.54,0.51-2.49,0.51c-0.72,0-1.42-0.15-2.1-0.44

	c-0.68-0.29-1.2-0.67-1.55-1.13l1.16-1.63c0.65,0.74,1.45,1.12,2.38,1.12c0.7,0,1.24-0.19,1.62-0.57c0.39-0.38,0.58-0.92,0.58-1.61

	V88.8c-0.61,0.7-1.4,1.05-2.39,1.05c-1.18,0-2.13-0.47-2.86-1.41c-0.73-0.94-1.09-2.19-1.09-3.75V84.58z"/>

<path class="st1" d="M61.47,82.15c-0.36-0.05-0.67-0.07-0.95-0.07c-0.99,0-1.64,0.34-1.95,1.03v6.55h-2.62V79.64h2.48l0.07,1.2

	c0.52-0.92,1.25-1.38,2.19-1.38c0.29,0,0.56,0.04,0.82,0.12L61.47,82.15z"/>

<path class="st1" d="M66.09,87.8c0.38,0,0.74-0.09,1.07-0.26c0.33-0.18,0.57-0.41,0.73-0.71V85.1h-0.98c-1.31,0-2.01,0.46-2.1,1.39

	l-0.01,0.16c0,0.33,0.12,0.61,0.35,0.82C65.37,87.69,65.69,87.8,66.09,87.8 M68.26,89.66c-0.12-0.24-0.21-0.54-0.26-0.9

	c-0.64,0.72-1.46,1.08-2.48,1.08c-0.96,0-1.76-0.28-2.39-0.85c-0.63-0.57-0.95-1.28-0.95-2.15c0-1.06,0.39-1.88,1.16-2.44

	c0.77-0.57,1.89-0.85,3.34-0.86h1.21v-0.58c0-0.46-0.12-0.83-0.35-1.11c-0.23-0.28-0.6-0.42-1.1-0.42c-0.44,0-0.79,0.11-1.04,0.32

	c-0.25,0.22-0.38,0.51-0.38,0.89H62.4c0-0.58,0.18-1.12,0.53-1.61c0.35-0.49,0.85-0.88,1.49-1.16c0.64-0.28,1.36-0.42,2.16-0.42

	c1.21,0,2.17,0.31,2.88,0.93c0.71,0.62,1.07,1.49,1.07,2.62v4.34c0.01,0.95,0.14,1.67,0.39,2.16v0.16H68.26z"/>

<path class="st1" d="M75.1,79.64l0.08,1.12c0.7-0.87,1.64-1.31,2.82-1.31c1.26,0,2.13,0.51,2.6,1.53c0.69-1.02,1.67-1.53,2.95-1.53

	c1.07,0,1.86,0.32,2.38,0.95c0.52,0.63,0.78,1.59,0.78,2.86v6.4h-2.63v-6.39c0-0.57-0.11-0.98-0.33-1.24

	c-0.22-0.26-0.6-0.39-1.15-0.39c-0.79,0-1.33,0.38-1.63,1.15l0.01,6.88h-2.62v-6.38c0-0.58-0.11-1-0.34-1.26

	c-0.23-0.26-0.61-0.39-1.14-0.39c-0.74,0-1.28,0.32-1.61,0.95v7.08h-2.62V79.64H75.1z"/>

<path class="st1" d="M91.3,79.64l0.08,1.12c0.7-0.87,1.64-1.31,2.82-1.31c1.26,0,2.13,0.51,2.6,1.53c0.69-1.02,1.67-1.53,2.95-1.53

	c1.07,0,1.86,0.32,2.38,0.95c0.52,0.63,0.78,1.59,0.78,2.86v6.4h-2.63v-6.39c0-0.57-0.11-0.98-0.33-1.24

	c-0.22-0.26-0.6-0.39-1.15-0.39c-0.79,0-1.33,0.38-1.63,1.15l0.01,6.88h-2.62v-6.38c0-0.58-0.11-1-0.34-1.26

	c-0.23-0.26-0.61-0.39-1.14-0.39c-0.74,0-1.28,0.32-1.61,0.95v7.08h-2.62V79.64H91.3z"/>

<path class="st1" d="M109.27,81.61c-0.52,0-0.94,0.18-1.27,0.54c-0.32,0.36-0.53,0.87-0.62,1.54h3.65v-0.21

	c-0.01-0.6-0.17-1.06-0.47-1.38C110.25,81.78,109.82,81.61,109.27,81.61 M109.56,89.84c-1.44,0-2.61-0.45-3.52-1.35

	c-0.9-0.9-1.35-2.1-1.35-3.6v-0.26c0-1,0.19-1.9,0.57-2.7c0.38-0.79,0.92-1.41,1.62-1.83c0.7-0.43,1.5-0.64,2.39-0.64

	c1.34,0,2.4,0.43,3.17,1.3c0.77,0.86,1.16,2.09,1.16,3.67v1.09h-6.25c0.09,0.65,0.34,1.18,0.77,1.57c0.43,0.39,0.97,0.59,1.62,0.59

	c1.01,0,1.8-0.37,2.37-1.12l1.29,1.47c-0.39,0.57-0.93,1.01-1.6,1.33C111.12,89.68,110.38,89.84,109.56,89.84"/>

<path class="st1" d="M160.69,71.77V63.7h-1.49v-1.96h1.49v-0.85c0-1.12,0.32-2,0.97-2.62c0.65-0.62,1.55-0.93,2.71-0.93

	c0.37,0,0.82,0.06,1.36,0.19l-0.03,2.08c-0.22-0.05-0.49-0.08-0.82-0.08c-1.01,0-1.51,0.47-1.51,1.42v0.81h1.99v1.96h-1.99v8.06

	H160.69z"/>

<path class="st1" d="M169.7,71.77h-2.69V61.74h2.69V71.77z M166.86,59.14c0-0.4,0.13-0.73,0.4-0.99c0.27-0.26,0.63-0.39,1.1-0.39

	c0.46,0,0.82,0.13,1.09,0.39c0.27,0.26,0.41,0.59,0.41,0.99c0,0.41-0.14,0.74-0.41,1c-0.27,0.26-0.64,0.39-1.09,0.39

	c-0.45,0-0.81-0.13-1.09-0.39C166.99,59.89,166.86,59.55,166.86,59.14"/>

<path class="st1" d="M174.49,61.74l0.08,1.16c0.72-0.9,1.68-1.34,2.88-1.34c1.06,0,1.85,0.31,2.37,0.94c0.52,0.62,0.78,1.56,0.8,2.8

	v6.48h-2.68v-6.41c0-0.57-0.12-0.98-0.37-1.24c-0.25-0.25-0.66-0.38-1.23-0.38c-0.75,0-1.32,0.32-1.7,0.96v7.07h-2.68V61.74H174.49z

	"/>

<path class="st1" d="M186.36,69.9c0.39,0,0.76-0.09,1.09-0.26c0.34-0.18,0.58-0.41,0.74-0.71v-1.72h-1c-1.34,0-2.05,0.46-2.14,1.39

	l-0.01,0.16c0,0.33,0.12,0.61,0.35,0.82C185.63,69.8,185.95,69.9,186.36,69.9 M188.58,71.77c-0.12-0.24-0.21-0.54-0.27-0.9

	c-0.65,0.72-1.49,1.09-2.53,1.09c-0.98,0-1.8-0.28-2.44-0.85c-0.64-0.57-0.97-1.29-0.97-2.15c0-1.06,0.39-1.88,1.18-2.45

	c0.79-0.57,1.93-0.85,3.42-0.86h1.23v-0.58c0-0.46-0.12-0.83-0.36-1.11c-0.24-0.28-0.61-0.42-1.13-0.42c-0.45,0-0.81,0.11-1.06,0.32

	c-0.26,0.22-0.38,0.51-0.38,0.89h-2.68c0-0.58,0.18-1.12,0.54-1.61c0.36-0.49,0.86-0.88,1.52-1.16c0.66-0.28,1.39-0.42,2.21-0.42

	c1.23,0,2.21,0.31,2.94,0.93c0.73,0.62,1.09,1.49,1.09,2.62v4.35c0.01,0.95,0.14,1.67,0.4,2.16v0.16H188.58z"/>

<path class="st1" d="M195.52,61.74l0.08,1.16c0.72-0.9,1.68-1.34,2.88-1.34c1.06,0,1.85,0.31,2.37,0.94c0.52,0.62,0.78,1.56,0.8,2.8

	v6.48h-2.68v-6.41c0-0.57-0.12-0.98-0.37-1.24c-0.25-0.25-0.66-0.38-1.23-0.38c-0.75,0-1.32,0.32-1.7,0.96v7.07H193V61.74H195.52z"

	/>

<path class="st1" d="M207.97,69.79c0.49,0,0.9-0.14,1.21-0.41c0.31-0.27,0.47-0.63,0.48-1.09h2.51c-0.01,0.68-0.19,1.3-0.56,1.87

	c-0.37,0.57-0.86,1-1.5,1.32c-0.63,0.31-1.33,0.47-2.1,0.47c-1.43,0-2.56-0.46-3.39-1.37c-0.83-0.91-1.24-2.17-1.24-3.78v-0.18

	c0-1.54,0.41-2.78,1.23-3.7c0.82-0.92,1.95-1.38,3.38-1.38c1.25,0,2.26,0.36,3.02,1.07c0.76,0.71,1.14,1.66,1.15,2.85h-2.51

	c-0.01-0.52-0.17-0.95-0.48-1.27c-0.31-0.33-0.72-0.49-1.22-0.49c-0.62,0-1.1,0.23-1.41,0.68c-0.32,0.46-0.48,1.19-0.48,2.21v0.28

	c0,1.03,0.16,1.78,0.47,2.23C206.85,69.57,207.33,69.79,207.97,69.79"/>

<path class="st1" d="M218.12,63.71c-0.53,0-0.96,0.18-1.29,0.54c-0.33,0.36-0.54,0.87-0.63,1.54h3.72v-0.21

	c-0.01-0.6-0.17-1.06-0.48-1.38C219.12,63.88,218.69,63.71,218.12,63.71 M218.42,71.95c-1.47,0-2.67-0.45-3.59-1.35

	c-0.92-0.9-1.38-2.1-1.38-3.61v-0.26c0-1.01,0.19-1.91,0.58-2.7c0.39-0.79,0.94-1.41,1.65-1.83c0.72-0.43,1.53-0.64,2.44-0.64

	c1.37,0,2.45,0.43,3.24,1.3c0.79,0.86,1.18,2.09,1.18,3.68v1.09h-6.39c0.09,0.66,0.35,1.18,0.78,1.58c0.44,0.39,0.99,0.59,1.65,0.59

	c1.03,0,1.84-0.37,2.42-1.12l1.32,1.47c-0.4,0.57-0.95,1.01-1.63,1.33C220.02,71.79,219.26,71.95,218.42,71.95"/>

<path class="st1" d="M162.79,89.66h-2.69V79.63h2.69V89.66z M159.94,77.04c0-0.4,0.13-0.73,0.4-0.99c0.27-0.26,0.63-0.39,1.1-0.39

	c0.46,0,0.82,0.13,1.09,0.39c0.27,0.26,0.41,0.59,0.41,0.99c0,0.41-0.14,0.74-0.41,1c-0.27,0.26-0.64,0.39-1.09,0.39

	s-0.81-0.13-1.09-0.39C160.08,77.78,159.94,77.44,159.94,77.04"/>

<path class="st1" d="M167.57,79.63l0.08,1.16c0.72-0.9,1.68-1.34,2.88-1.34c1.06,0,1.85,0.31,2.37,0.94c0.52,0.62,0.78,1.56,0.8,2.8

	v6.48h-2.68v-6.41c0-0.57-0.12-0.98-0.37-1.24c-0.25-0.25-0.66-0.38-1.23-0.38c-0.75,0-1.32,0.32-1.7,0.96v7.07h-2.68V79.63H167.57z

	"/>

<path class="st1" d="M178.67,89.66h-2.69V79.63h2.69V89.66z M175.83,77.04c0-0.4,0.13-0.73,0.4-0.99c0.27-0.26,0.63-0.39,1.1-0.39

	c0.46,0,0.82,0.13,1.09,0.39c0.27,0.26,0.41,0.59,0.41,0.99c0,0.41-0.14,0.74-0.41,1c-0.27,0.26-0.64,0.39-1.09,0.39

	s-0.81-0.13-1.09-0.39C175.97,77.78,175.83,77.44,175.83,77.04"/>

<path class="st1" d="M184.2,77.17v2.46h1.71v1.96h-1.71v5.01c0,0.37,0.07,0.64,0.21,0.8c0.14,0.16,0.41,0.24,0.82,0.24

	c0.3,0,0.56-0.02,0.79-0.07v2.03c-0.52,0.16-1.07,0.24-1.62,0.24c-1.88,0-2.84-0.95-2.87-2.85v-5.4h-1.47v-1.96h1.47v-2.46H184.2z"

	/>

<path class="st1" d="M190.35,89.66h-2.69V79.63h2.69V89.66z M187.5,77.04c0-0.4,0.13-0.73,0.4-0.99c0.27-0.26,0.63-0.39,1.1-0.39

	c0.46,0,0.82,0.13,1.09,0.39c0.27,0.26,0.41,0.59,0.41,0.99c0,0.41-0.14,0.74-0.41,1c-0.27,0.26-0.64,0.39-1.09,0.39

	c-0.45,0-0.81-0.13-1.09-0.39C187.64,77.78,187.5,77.44,187.5,77.04"/>

<path class="st1" d="M196.26,87.8c0.39,0,0.76-0.09,1.09-0.26c0.34-0.18,0.58-0.41,0.74-0.71V85.1h-1c-1.34,0-2.05,0.46-2.14,1.39

	l-0.01,0.16c0,0.33,0.12,0.61,0.35,0.82C195.53,87.69,195.86,87.8,196.26,87.8 M198.48,89.66c-0.12-0.24-0.21-0.54-0.27-0.9

	c-0.65,0.72-1.49,1.09-2.53,1.09c-0.98,0-1.8-0.28-2.44-0.85c-0.64-0.57-0.97-1.29-0.97-2.15c0-1.06,0.39-1.88,1.18-2.45

	c0.79-0.57,1.93-0.85,3.42-0.86h1.23v-0.58c0-0.46-0.12-0.83-0.36-1.11c-0.24-0.28-0.61-0.42-1.13-0.42c-0.45,0-0.81,0.11-1.06,0.32

	c-0.26,0.22-0.38,0.51-0.38,0.89h-2.68c0-0.58,0.18-1.12,0.54-1.61c0.36-0.49,0.86-0.88,1.52-1.16c0.66-0.28,1.39-0.42,2.21-0.42

	c1.23,0,2.21,0.31,2.94,0.93c0.73,0.62,1.09,1.49,1.09,2.62v4.35c0.01,0.95,0.14,1.67,0.4,2.16v0.16H198.48z"/>

<path class="st1" d="M206.16,77.17v2.46h1.71v1.96h-1.71v5.01c0,0.37,0.07,0.64,0.21,0.8c0.14,0.16,0.41,0.24,0.82,0.24

	c0.3,0,0.56-0.02,0.79-0.07v2.03c-0.52,0.16-1.07,0.24-1.62,0.24c-1.88,0-2.84-0.95-2.87-2.85v-5.4h-1.47v-1.96h1.47v-2.46H206.16z"

	/>

<path class="st1" d="M212.31,89.66h-2.69V79.63h2.69V89.66z M209.47,77.04c0-0.4,0.13-0.73,0.4-0.99c0.27-0.26,0.63-0.39,1.1-0.39

	c0.46,0,0.82,0.13,1.09,0.39c0.27,0.26,0.41,0.59,0.41,0.99c0,0.41-0.14,0.74-0.41,1c-0.27,0.26-0.64,0.39-1.09,0.39

	s-0.81-0.13-1.09-0.39C209.6,77.78,209.47,77.44,209.47,77.04"/>

<polygon class="st1" points="218.38,86.39 220.24,79.63 223.04,79.63 219.66,89.66 217.1,89.66 213.72,79.63 216.52,79.63 "/>

<path class="st1" d="M228.52,81.61c-0.53,0-0.96,0.18-1.29,0.54c-0.33,0.36-0.54,0.87-0.64,1.54h3.73v-0.21

	c-0.01-0.6-0.17-1.06-0.48-1.38C229.53,81.77,229.09,81.61,228.52,81.61 M228.83,89.84c-1.47,0-2.67-0.45-3.59-1.35

	c-0.92-0.9-1.38-2.1-1.38-3.61v-0.26c0-1.01,0.19-1.91,0.58-2.7c0.39-0.79,0.94-1.41,1.65-1.83c0.72-0.43,1.53-0.64,2.44-0.64

	c1.37,0,2.45,0.43,3.24,1.3c0.79,0.86,1.18,2.09,1.18,3.68v1.09h-6.39c0.09,0.66,0.35,1.18,0.78,1.58c0.43,0.39,0.99,0.59,1.65,0.59

	c1.03,0,1.84-0.37,2.42-1.12l1.32,1.47c-0.4,0.57-0.95,1.01-1.63,1.33C230.42,89.68,229.67,89.84,228.83,89.84"/>

<rect x="139.34" y="17.02" class="st1" width="2.64" height="72.64"/>

</svg>
